<?xml version="1.0" encoding="UTF-8"?>
<svg version="1.1" xmlns="http://www.w3.org/2000/svg" width="512" height="512">
<path d="M0 0 C1.45343969 -0.00461569 2.90687471 -0.01097309 4.36030006 -0.01890898 C8.33188297 -0.03553385 12.30307907 -0.02738739 16.27466297 -0.0149641 C20.56649648 -0.00588774 24.85826499 -0.01989613 29.15008545 -0.03088379 C37.5489298 -0.04864605 45.94763095 -0.04483926 54.34648085 -0.03323323 C61.17397198 -0.02419015 68.00142305 -0.02297869 74.82891846 -0.02732849 C75.80160349 -0.02794142 76.77428851 -0.02855436 77.77644885 -0.02918586 C79.7526002 -0.0304648 81.72875155 -0.03176165 83.70490289 -0.03307623 C102.22398997 -0.04447531 120.74299777 -0.03137886 139.26207185 -0.00987476 C155.1433415 0.0079956 171.02449418 0.00489131 186.90576172 -0.0135498 C205.35975507 -0.03496838 223.81367898 -0.04337674 242.26768303 -0.03110075 C244.23645909 -0.02982659 246.20523515 -0.0285691 248.17401123 -0.02732849 C249.62692595 -0.02640284 249.62692595 -0.02640284 251.10919249 -0.02545848 C257.92642934 -0.02200855 264.74362204 -0.02782625 271.56085205 -0.0372467 C279.87174066 -0.04847902 288.18247819 -0.04540071 296.49334955 -0.02412373 C300.73160012 -0.0136299 304.96959904 -0.00946292 309.2078476 -0.02272034 C313.0915685 -0.03468482 316.97480573 -0.02801551 320.85848308 -0.00681013 C322.2594247 -0.00236115 323.66040763 -0.00457185 325.06132245 -0.01431328 C334.42174798 -0.07438277 342.53905833 0.64006779 350.12255859 6.55090332 C351.02167969 7.61244629 351.02167969 7.61244629 351.93896484 8.69543457 C352.55642578 9.39023926 353.17388672 10.08504395 353.81005859 10.80090332 C358.35573783 18.07608972 358.9274423 25.33674412 358.81944275 33.74194336 C358.81762279 34.84175868 358.81580282 35.94157399 358.81392771 37.07471704 C358.80451491 40.74341355 358.77381408 44.41162233 358.7434082 48.0802002 C358.73277446 50.71714438 358.7234116 53.35406096 358.71588135 55.99101257 C358.69779515 61.6614433 358.67008556 67.33175893 358.63706779 73.00212097 C358.58601874 81.96941836 358.56971223 90.93662876 358.5594635 99.90405273 C358.55557196 102.97615827 358.55153237 106.0482636 358.54750156 109.12036896 C358.54651326 109.88797313 358.54552496 110.65557731 358.54450671 111.44644222 C358.53299123 120.17153985 358.51625689 128.89662287 358.49584961 137.6217041 C358.49399599 138.41872917 358.49214238 139.21575423 358.49023259 140.03693157 C358.45907422 152.9602747 358.39429315 165.88327749 358.31984323 178.80643374 C358.24439133 192.09012662 358.21488309 205.37340278 358.22538096 218.65730619 C358.23020691 226.84346282 358.19792891 235.02776953 358.11762316 243.21354139 C358.06581363 248.82321097 358.05787089 254.43187184 358.0841577 260.04171479 C358.09795839 263.2765751 358.08580875 266.50765859 358.03399849 269.74222374 C357.08455988 283.1926191 357.08455988 283.1926191 362.13716316 294.96302795 C364.98676011 297.36627592 368.13678186 298.91698364 371.50146484 300.50793457 C373.63998318 302.24201202 373.63998318 302.24201202 375.20068359 303.77355957 C375.70253174 304.26380615 376.20437988 304.75405273 376.72143555 305.25915527 C377.20572021 305.75375244 377.69000488 306.24834961 378.18896484 306.75793457 C378.72803467 307.30602783 379.26710449 307.85412109 379.82250977 308.41882324 C400.06989452 329.53434062 410.10723604 358.74522133 409.8527832 387.70300293 C409.02474714 419.23473165 395.47915769 446.9204532 372.84521484 468.50402832 C351.19011949 488.39430877 321.95524482 497.52172468 292.92724609 496.72668457 C274.30300485 495.92855981 257.66378974 490.55507991 241.50146484 481.50793457 C240.50373047 480.95234863 239.50599609 480.3967627 238.47802734 479.82434082 C230.93304793 475.31681014 224.79332441 469.57346825 218.50146484 463.50793457 C217.84275391 462.9123877 217.18404297 462.31684082 216.50537109 461.70324707 C197.44656321 444.00892659 187.26709341 415.1048991 186.25146484 389.63293457 C185.77195312 366.96695803 185.77195312 366.96695803 189.50146484 359.50793457 C171.02146484 359.50793457 152.54146484 359.50793457 133.50146484 359.50793457 C134.16146484 362.14793457 134.82146484 364.78793457 135.50146484 367.50793457 C139.95929089 396.36950066 133.19386593 426.78930965 116.03637695 450.5135498 C98.24063734 474.08837322 72.81023217 490.47673821 43.50146484 495.50793457 C16.98230058 499.2024767 -8.21220336 494.54286795 -31.49853516 481.50793457 C-32.49626953 480.95234863 -33.49400391 480.3967627 -34.52197266 479.82434082 C-42.06695207 475.31681014 -48.20667559 469.57346825 -54.49853516 463.50793457 C-55.15724609 462.9123877 -55.81595703 462.31684082 -56.49462891 461.70324707 C-75.44018015 444.11407478 -85.66654593 415.56752232 -86.78369141 390.28918457 C-87.57950087 359.38005838 -77.46501768 330.73041237 -56.32275391 308.05480957 C-55.21983917 306.90919617 -54.11184854 305.76844516 -52.99853516 304.63293457 C-52.50135986 304.12166016 -52.00418457 303.61038574 -51.49194336 303.08361816 C-49.11927353 300.7409629 -46.91526111 298.75034981 -44.01519197 297.06333959 C-38.75067388 294.05379975 -38.75067388 294.05379975 -35.57487309 289.11186528 C-35.22921159 286.2048442 -35.19993726 283.44116596 -35.2782135 280.51443481 C-35.2677024 279.41632835 -35.25719129 278.31822188 -35.24636167 277.18683946 C-35.2232197 273.51056472 -35.27132405 269.83870566 -35.3190918 266.16271973 C-35.31696102 263.52596304 -35.31085367 260.88949741 -35.29971313 258.25279236 C-35.28349402 252.57652404 -35.30342078 246.90131378 -35.34773445 241.22520828 C-35.41155857 233.00894919 -35.41714397 224.79344177 -35.40814321 216.57697706 C-35.39482094 203.23280455 -35.42385251 189.88908565 -35.48168945 176.54504395 C-35.5376343 163.60722175 -35.58122413 150.66949629 -35.6027832 137.73156738 C-35.60411965 136.93499327 -35.6054561 136.13841915 -35.60683305 135.31770642 C-35.62099595 126.61569878 -35.63072746 117.91369321 -35.63587856 109.21167564 C-35.63634336 108.44616522 -35.63680815 107.68065479 -35.63728703 106.89194708 C-35.63910318 103.83109727 -35.64089845 100.77024758 -35.6421582 97.70939748 C-35.64599137 88.75982161 -35.6634488 79.8105161 -35.7056542 70.86103474 C-35.73188498 65.24509145 -35.74852502 59.62917766 -35.75773752 54.01318075 C-35.76356578 50.77552933 -35.77624059 47.53814461 -35.79894447 44.3005619 C-35.82304616 40.7853914 -35.82866628 37.27064374 -35.82997131 33.75540161 C-35.84747447 32.23188959 -35.84747447 32.23188959 -35.86533123 30.67759955 C-35.83696196 22.47926484 -34.53580224 14.99663386 -28.93603516 8.69543457 C-28.33662109 7.98773926 -27.73720703 7.28004395 -27.11962891 6.55090332 C-18.9256213 0.16421781 -10.01778547 -0.06965987 0 0 Z " fill="#E0EDFE" transform="translate(94.49853515625,7.4920654296875)"/>
<path d="M0 0 C1.08796875 0.26683594 2.1759375 0.53367187 3.296875 0.80859375 C12.46374526 3.32389352 20.66671993 7.52620015 29 12 C29.92941406 12.48339844 30.85882813 12.96679688 31.81640625 13.46484375 C39.17084206 17.5375249 44.99577652 23.20899468 51 29 C51.66 29.59683594 52.32 30.19367188 53 30.80859375 C71.81933114 48.27746363 82.16589173 77.00010922 83.28515625 102.1484375 C84.10777307 134.0724105 73.28477375 162.90928087 51.32568359 186.07495117 C30.89160745 206.96887016 2.7425175 218.67440626 -26.39038086 219.30273438 C-47.63084409 219.38837277 -66.54448603 214.33079822 -85 204 C-85.99773437 203.44441406 -86.99546875 202.88882813 -88.0234375 202.31640625 C-95.56841691 197.80887557 -101.70814044 192.06553368 -108 186 C-108.65871094 185.40445313 -109.31742187 184.80890625 -109.99609375 184.1953125 C-129.05490163 166.50099202 -139.23437143 137.59696452 -140.25 112.125 C-140.95155844 79.77895325 -129.00260574 52.37273137 -107 29 C-106.46117187 28.39671875 -105.92234375 27.7934375 -105.3671875 27.171875 C-79.41168002 -0.74007776 -35.92594857 -9.30369296 0 0 Z " fill="#66CAA4" transform="translate(421,285)"/>
<path d="M0 0 C0.8262085 0.39509766 1.65241699 0.79019531 2.50366211 1.19726562 C13.24774014 6.46758743 21.88526686 13.64393225 30.5625 21.8125 C31.16578125 22.35132813 31.7690625 22.89015625 32.390625 23.4453125 C51.55309059 41.26461461 62.67893637 69.54712557 63.77734375 95.26953125 C64.64256389 126.14389393 54.39118041 154.47108003 33.4921875 177.1953125 C14.33064329 197.40972086 -12.73557893 210.55324884 -40.71972656 211.92431641 C-63.8840248 212.49967155 -84.21561011 208.13205818 -104.4375 196.8125 C-105.43523437 196.25691406 -106.43296875 195.70132813 -107.4609375 195.12890625 C-115.00591691 190.62137557 -121.14564044 184.87803368 -127.4375 178.8125 C-128.09621094 178.21695313 -128.75492188 177.62140625 -129.43359375 177.0078125 C-148.379145 159.41864021 -158.60551078 130.87208775 -159.72265625 105.59375 C-160.51846571 74.68462381 -150.40398253 46.0349778 -129.26171875 23.359375 C-119.7714626 13.45534032 -109.8600652 6.67396068 -97.4375 0.8125 C-95.90802734 0.03712891 -95.90802734 0.03712891 -94.34765625 -0.75390625 C-65.41879958 -15.02166127 -28.85290171 -13.81931969 0 0 Z " fill="#EB6374" transform="translate(167.4375,292.1875)"/>
<path d="M0 0 C1.45343969 -0.00461569 2.90687471 -0.01097309 4.36030006 -0.01890898 C8.33188297 -0.03553385 12.30307907 -0.02738739 16.27466297 -0.0149641 C20.56649648 -0.00588774 24.85826499 -0.01989613 29.15008545 -0.03088379 C37.5489298 -0.04864605 45.94763095 -0.04483926 54.34648085 -0.03323323 C61.17397198 -0.02419015 68.00142305 -0.02297869 74.82891846 -0.02732849 C75.80160349 -0.02794142 76.77428851 -0.02855436 77.77644885 -0.02918586 C79.7526002 -0.0304648 81.72875155 -0.03176165 83.70490289 -0.03307623 C102.22398997 -0.04447531 120.74299777 -0.03137886 139.26207185 -0.00987476 C155.1433415 0.0079956 171.02449418 0.00489131 186.90576172 -0.0135498 C205.35975507 -0.03496838 223.81367898 -0.04337674 242.26768303 -0.03110075 C244.23645909 -0.02982659 246.20523515 -0.0285691 248.17401123 -0.02732849 C249.62692595 -0.02640284 249.62692595 -0.02640284 251.10919249 -0.02545848 C257.92642934 -0.02200855 264.74362204 -0.02782625 271.56085205 -0.0372467 C279.87174066 -0.04847902 288.18247819 -0.04540071 296.49334955 -0.02412373 C300.73160012 -0.0136299 304.96959904 -0.00946292 309.2078476 -0.02272034 C313.0915685 -0.03468482 316.97480573 -0.02801551 320.85848308 -0.00681013 C322.2594247 -0.00236115 323.66040763 -0.00457185 325.06132245 -0.01431328 C334.42174798 -0.07438277 342.53905833 0.64006779 350.12255859 6.55090332 C351.02167969 7.61244629 351.02167969 7.61244629 351.93896484 8.69543457 C352.55642578 9.39023926 353.17388672 10.08504395 353.81005859 10.80090332 C364.34728124 27.66532663 358.50146484 52.7399726 358.50146484 69.50793457 C228.48146484 69.50793457 98.46146484 69.50793457 -35.49853516 69.50793457 C-35.49853516 16.07995962 -35.49853516 16.07995962 -28.93603516 8.69543457 C-28.33662109 7.98773926 -27.73720703 7.28004395 -27.11962891 6.55090332 C-18.9256213 0.16421781 -10.01778547 -0.06965987 0 0 Z " fill="#49508E" transform="translate(94.49853515625,7.4920654296875)"/>
<path d="M0 0 C2.9375 2.125 2.9375 2.125 5 5 C5.47926972 9.07379263 4.91658623 10.821532 2.40893555 14.0456543 C-4.68721039 21.80163627 -12.10528021 29.21801952 -19.5625 36.625 C-20.8706778 37.92814946 -22.17862217 39.2315333 -23.48632812 40.53515625 C-26.65487214 43.69280792 -29.82654177 46.8472875 -33 50 C-28.93545271 54.88611704 -24.66471688 59.460658 -20.140625 63.921875 C-19.51017273 64.54854065 -18.87972046 65.1752063 -18.23016357 65.82086182 C-16.23921165 67.79971407 -14.24502688 69.77525662 -12.25 71.75 C-9.60649604 74.36691062 -6.96632436 76.98711796 -4.328125 79.609375 C-3.42033295 80.50471954 -3.42033295 80.50471954 -2.49420166 81.41815186 C-1.93311707 81.97593323 -1.37203247 82.5337146 -0.79394531 83.10839844 C-0.30130188 83.59580505 0.19134155 84.08321167 0.69891357 84.58538818 C3.82067122 87.97953262 4.44700257 90.48941252 4.3125 95.0625 C4 97 4 97 2.375 99.4375 C-0.61178724 101.4024916 -2.40987366 102 -6 102 C-11.4895765 98.92137943 -15.63069358 94.6282387 -20.0234375 90.171875 C-20.76961334 89.42286926 -21.51578918 88.67386353 -22.28457642 87.90216064 C-24.65281128 85.52278399 -27.01397363 83.13652757 -29.375 80.75 C-30.98521424 79.12974823 -32.59588649 77.50995148 -34.20703125 75.890625 C-38.14333907 71.93233646 -42.07387258 67.96838506 -46 64 C-50.95444966 68.14658582 -55.58167467 72.46918147 -60.10546875 77.078125 C-61.43150915 78.41679691 -62.75768494 79.75533472 -64.08398438 81.09375 C-66.14638072 83.18105392 -68.20712502 85.26994092 -70.26538086 87.36132812 C-72.27019872 89.39630969 -74.28116026 91.4250576 -76.29296875 93.453125 C-76.90657761 94.08019348 -77.52018646 94.70726196 -78.15238953 95.35333252 C-78.73011612 95.93443787 -79.30784271 96.51554321 -79.90307617 97.11425781 C-80.40602707 97.62466614 -80.90897797 98.13507446 -81.4271698 98.66094971 C-84.49081348 101.26922425 -86.43918288 102.01001459 -90.5 101.9375 C-94 101 -94 101 -96.4375 98.8125 C-98.29418273 95.47047109 -98.38981728 93.77685666 -98 90 C-96.56079102 87.75830078 -96.56079102 87.75830078 -94.44140625 85.5703125 C-93.61914551 84.71083008 -92.79688477 83.85134766 -91.94970703 82.96582031 C-90.96775251 81.97594099 -89.98441719 80.98743027 -89 80 C-87.84600664 78.82667909 -86.6922086 77.65316606 -85.53857422 76.47949219 C-81.69529861 72.58733217 -77.81783791 68.73015017 -73.9375 64.875 C-72.5811454 63.52367314 -71.2250239 62.17211228 -69.86914062 60.8203125 C-66.58210445 57.54417473 -63.29194304 54.27120689 -60 51 C-64.14658582 46.04555034 -68.46918147 41.41832533 -73.078125 36.89453125 C-74.41679691 35.56849085 -75.75533472 34.24231506 -77.09375 32.91601562 C-79.18105392 30.85361928 -81.26994092 28.79287498 -83.36132812 26.73461914 C-85.39630969 24.72980128 -87.4250576 22.71883974 -89.453125 20.70703125 C-90.08019348 20.09342239 -90.70726196 19.47981354 -91.35333252 18.84761047 C-91.93443787 18.26988388 -92.51554321 17.69215729 -93.11425781 17.09692383 C-93.62466614 16.59397293 -94.13507446 16.09102203 -94.66094971 15.5728302 C-97.08820377 12.7218107 -98.03202825 10.76867802 -97.875 7 C-96.83307574 3.42768824 -96.10357196 2.06904798 -93 0 C-89.56248305 -0.77047794 -88.24655224 -0.99511724 -85 0 C-75.97350366 6.60096641 -68.24065055 15.64349912 -60.375 23.5625 C-59.07185054 24.8706778 -57.7684667 26.17862217 -56.46484375 27.48632812 C-53.30719208 30.65487214 -50.1527125 33.82654177 -47 37 C-42.12962645 32.95164524 -37.58146628 28.6958336 -33.1484375 24.17578125 C-31.87252863 22.88723829 -30.59648295 21.59883077 -29.3203125 20.31054688 C-27.33919743 18.30455704 -25.35973931 16.29698309 -23.3828125 14.28686523 C-21.45493807 12.3287487 -19.52085658 10.37693335 -17.5859375 8.42578125 C-16.70607681 7.52573112 -16.70607681 7.52573112 -15.80844116 6.60749817 C-6.94100395 -2.31366798 -6.94100395 -2.31366798 0 0 Z " fill="#FEF9FA" transform="translate(166,342)"/>
<path d="M0 0 C0.7528125 0.01289062 1.505625 0.02578125 2.28125 0.0390625 C3.0340625 0.02617188 3.786875 0.01328125 4.5625 0 C7.90642632 1.00082302 8.90113234 2.76902522 10.78125 5.6640625 C11.28905869 9.04357624 11.28905869 9.04357624 11.30023193 12.98493958 C11.30773319 13.71200047 11.31523444 14.43906136 11.322963 15.1881544 C11.34322692 17.61897337 11.3351405 20.04885841 11.32714844 22.47973633 C11.33588419 24.22430341 11.34636999 25.96886247 11.35847473 27.71340942 C11.38635512 32.44649712 11.38973897 37.17932365 11.38875484 41.91248155 C11.39188219 46.85998283 11.41749668 51.80736618 11.44073486 56.75480652 C11.48131205 66.12216178 11.50163963 75.4894474 11.51470876 84.85687703 C11.53057297 95.52190701 11.56898617 106.18681837 11.60930204 116.85177958 C11.69172454 138.78917088 11.74500215 160.72655051 11.78125 182.6640625 C5.84125 181.6740625 -0.09875 180.6840625 -6.21875 179.6640625 C-6.31131199 157.06366853 -6.38271105 134.46332015 -6.42599869 111.86277485 C-6.44663136 101.36914432 -6.47476548 90.87563367 -6.52050781 80.38208008 C-6.56035393 71.23679897 -6.58617768 62.09160467 -6.59510398 52.94623917 C-6.60032249 48.1029846 -6.61260258 43.2599784 -6.64167023 38.41680336 C-6.66880415 33.85892701 -6.67719909 29.30140152 -6.67118073 24.74345207 C-6.67228187 23.07008585 -6.68024789 21.39670798 -6.6955719 19.72341156 C-6.7154689 17.43885878 -6.71069127 15.1556313 -6.69976807 12.87104797 C-6.70345524 11.5925211 -6.70714241 10.31399424 -6.71094131 8.99672413 C-6.06635906 4.63221283 -4.42086272 1.32314553 0 0 Z " fill="#B1CADC" transform="translate(134.21875,102.3359375)"/>
<path d="M0 0 C3.43514359 0.79272544 5.04488573 1.97050121 7.4375 4.5625 C8.6875 7.625 8.6875 7.625 8.4375 11.5625 C6.55816494 15.52998512 3.99062519 19.00893714 1.4375 22.5625 C0.55323338 23.82320006 -0.32949855 25.08497755 -1.2109375 26.34765625 C-3.21921259 29.21514713 -5.24004672 32.07326421 -7.26953125 34.92578125 C-10.63944342 39.66418568 -13.97955034 44.42304587 -17.3125 49.1875 C-17.89056396 50.0134668 -18.46862793 50.83943359 -19.06420898 51.69042969 C-22.93135364 57.21990247 -26.78648872 62.75764122 -30.63647461 68.29907227 C-32.66055171 71.21122795 -34.6874763 74.12138433 -36.71484375 77.03125 C-39.17671606 80.5652379 -41.62663053 84.10697879 -44.06640625 87.65625 C-45.12739388 89.18764571 -46.18857911 90.71890455 -47.25 92.25 C-47.71873535 92.93860107 -48.1874707 93.62720215 -48.67041016 94.33666992 C-51.23407639 98.01604893 -53.5947657 101.30797032 -57.5625 103.5625 C-64.21304044 103.5116287 -67.1461993 100.90145487 -71.58984375 96.4375 C-72.22362442 95.81657471 -72.85740509 95.19564941 -73.51039124 94.5559082 C-74.84143847 93.24203676 -76.16476592 91.92030388 -77.48071289 90.59130859 C-79.49270771 88.56982667 -81.54136534 86.59160534 -83.59570312 84.61328125 C-84.88784575 83.32795819 -86.17764222 82.04027134 -87.46484375 80.75 C-88.38341408 79.87287354 -88.38341408 79.87287354 -89.32054138 78.97802734 C-92.51772668 75.67377585 -93.94974067 73.45515797 -94.07250977 68.77734375 C-93.93154108 65.42240316 -93.6717673 64.70156747 -91.5 61.9375 C-87.4904313 60.06068061 -85.78881151 60.20148443 -81.5625 61.5625 C-78.57788064 63.5780871 -76.11064444 66.02716031 -73.5625 68.5625 C-73.05895996 69.05911133 -72.55541992 69.55572266 -72.03662109 70.06738281 C-68.51796171 73.53918227 -65.03167309 77.04128932 -61.5625 80.5625 C-53.50373156 70.15325743 -46.07893796 59.30723008 -38.58935547 48.48583984 C-34.98848577 43.29229446 -31.36358853 38.11558029 -27.72973633 32.94506836 C-24.72262618 28.66351835 -21.73968583 24.3675928 -18.7890625 20.046875 C-18.16531738 19.1396167 -17.54157227 18.2323584 -16.89892578 17.29760742 C-15.71059603 15.56819426 -14.52882211 13.83425023 -13.35498047 12.0949707 C-5.90721078 1.29670481 -5.90721078 1.29670481 0 0 Z " fill="#FCFEFD" transform="translate(435.5625,340.4375)"/>
<path d="M0 0 C0.9927295 -0.00188513 1.985459 -0.00377026 3.00827122 -0.00571251 C4.72216793 -0.02686119 4.72216793 -0.02686119 6.47068882 -0.04843712 C7.72015293 -0.03831596 8.96961704 -0.02819481 10.2569437 -0.01776695 C11.57598194 -0.02652855 12.89502018 -0.03529015 14.25402927 -0.04431725 C17.86994893 -0.06711004 21.48515522 -0.05827449 25.10108733 -0.04242182 C28.8864218 -0.02975975 32.67169533 -0.041504 36.4570322 -0.04935265 C42.81492669 -0.0584495 49.1725308 -0.04646179 55.5303812 -0.02264977 C62.87759569 0.00455022 70.22411619 -0.00424375 77.5713138 -0.03178179 C83.88145949 -0.05448507 90.19139646 -0.05766674 96.50156981 -0.04458845 C100.26942157 -0.03679899 104.03694737 -0.03573778 107.8047781 -0.05227089 C111.34846561 -0.06673411 114.89126041 -0.05666199 118.43485165 -0.02779961 C120.35302477 -0.01805284 122.27127355 -0.03287425 124.1894083 -0.04843712 C133.56856835 0.0670124 133.56856835 0.0670124 136.67443943 2.98214149 C138.80601879 6.25620119 139.11694938 7.79381084 138.39781284 11.6292057 C136.24690833 14.96681616 135.19368485 16.36391503 131.39781284 17.6292057 C129.62272339 17.72996181 127.84411048 17.77281657 126.06619358 17.78310585 C124.40701153 17.79600655 124.40701153 17.79600655 122.71431065 17.80916786 C121.50022526 17.81342781 120.28613987 17.81768776 119.03526402 17.8220768 C117.75699238 17.83025429 116.47872074 17.83843178 115.1617136 17.84685707 C110.9214243 17.87304689 106.68112527 17.88838049 102.44078159 17.9026432 C100.98011678 17.90800391 99.51945203 17.91338143 98.05878735 17.91877556 C91.98263466 17.94039879 85.9064846 17.95913539 79.83030319 17.97039795 C71.12662149 17.98663794 62.42338611 18.01982268 53.71987265 18.0767988 C47.59747601 18.11551009 41.4751987 18.13503194 35.35268289 18.14031851 C31.69703866 18.14397008 28.04187081 18.15596971 24.38635921 18.18842125 C20.30681817 18.22411901 16.22823574 18.22012812 12.14854527 18.2127018 C10.33652622 18.2373098 10.33652622 18.2373098 8.48790073 18.26241493 C-0.64155723 18.1942788 -0.64155723 18.1942788 -4.36004543 15.3114872 C-6.60218716 12.6292057 -6.60218716 12.6292057 -7.22718716 9.1292057 C-6.40040058 4.49920087 -4.82175308 1.16589406 0 0 Z " fill="#68CAA5" transform="translate(194.60218715667725,170.37079429626465)"/>
<path d="M0 0 C0.95830215 -0.00554901 1.91660431 -0.01109802 2.90394592 -0.01681519 C6.06733415 -0.02861279 9.22929037 -0.00433433 12.39257812 0.02148438 C14.5930576 0.0231955 16.79353912 0.02312977 18.99401855 0.0213623 C23.6041211 0.02301562 28.21373743 0.04171645 32.82373047 0.07324219 C38.73207686 0.11291942 44.63978633 0.11728741 50.54824066 0.10977936 C55.09159171 0.10670934 59.63479965 0.11883139 64.17811584 0.13591003 C66.35660403 0.14293974 68.53510843 0.1460646 70.71360779 0.1452179 C73.75858859 0.14701624 76.80280728 0.16840191 79.84765625 0.1953125 C81.19749352 0.1909166 81.19749352 0.1909166 82.57460022 0.18643188 C87.32801172 0.25122539 90.59673946 0.47790231 94.42382812 3.61523438 C96.42382812 6.61523438 96.42382812 6.61523438 96.36132812 10.05273438 C95.20304498 14.45421031 94.30550384 15.30752371 90.42382812 17.61523438 C87.19984611 18.19866364 84.02535778 18.17214772 80.75585938 18.14868164 C79.78780365 18.15729721 78.81974792 18.16591278 77.82235718 18.17478943 C74.62674115 18.19746728 71.4320007 18.19070737 68.23632812 18.18164062 C66.01342508 18.18687513 63.79052426 18.19315097 61.56762695 18.20042419 C56.91053815 18.2108316 52.25375484 18.20626144 47.59667969 18.19165039 C41.62761901 18.1744564 35.65952035 18.19796445 29.69056702 18.23313999 C25.10088722 18.25509514 20.51143831 18.2536771 15.92172241 18.24537468 C13.72088567 18.24455425 11.52003212 18.25143511 9.31924438 18.26614571 C6.24282587 18.28355757 3.16814531 18.26907647 0.09179688 18.24633789 C-0.81744537 18.25803009 -1.72668762 18.26972229 -2.66348267 18.2817688 C-7.10187535 18.21499229 -9.00212579 18.04985253 -12.64135742 15.29454041 C-14.57617188 12.61523438 -14.57617188 12.61523438 -15.20117188 9.11523438 C-13.6366569 0.35395052 -7.5392314 -0.11111858 0 0 Z " fill="#66CAA4" transform="translate(219.576171875,272.384765625)"/>
<path d="M0 0 C0.90138702 -0.0071553 1.80277405 -0.01431061 2.73147583 -0.02168274 C5.70488476 -0.03856355 8.67678483 -0.01917224 11.65014648 0.00219727 C13.71850204 0.00136858 15.78685754 -0.00109077 17.85520935 -0.00511169 C22.18704076 -0.00796918 26.51835497 0.00672835 30.85009766 0.03417969 C36.4044224 0.0682834 41.9578236 0.06223656 47.51219273 0.04351711 C51.78187264 0.03295303 56.05133734 0.04187926 60.32099724 0.05690193 C62.36913349 0.0620871 64.41729218 0.0615979 66.46542549 0.05535698 C69.32640116 0.04991116 72.18605044 0.07025887 75.046875 0.09765625 C76.31794853 0.08786743 76.31794853 0.08786743 77.61470032 0.07788086 C83.35072803 0.17136043 83.35072803 0.17136043 86.48252869 2.53944397 C88.53177632 5.44304432 88.52433507 7.27631785 88.35717773 10.72875977 C87.74978446 13.6287649 86.29374231 14.91419022 83.95874023 16.63110352 C80.70615137 18.25739795 77.12440514 17.7964747 73.54931641 17.80810547 C72.2441935 17.81796227 72.2441935 17.81796227 70.91270447 17.82801819 C68.02570515 17.84777171 65.1387579 17.85941814 62.25170898 17.86938477 C61.26685328 17.87346029 60.28199757 17.87753582 59.26729774 17.88173485 C54.05499098 17.90260402 48.84271062 17.91690226 43.63037109 17.92626953 C38.24319499 17.93733775 32.85643152 17.97174008 27.46940136 18.01144123 C23.33013636 18.03757052 19.19097024 18.04595807 15.05163002 18.04955101 C13.06568934 18.05442625 11.07975334 18.06606682 9.09389305 18.084589 C6.31437745 18.10890273 3.53593675 18.10802971 0.75634766 18.10107422 C-0.06410034 18.11388428 -0.88454834 18.12669434 -1.7298584 18.13989258 C-5.70097859 18.10366994 -7.59394158 17.91625946 -11.02861023 15.72673035 C-13.41689619 13.23998039 -13.96092899 12.23358436 -14.41625977 8.81860352 C-14.04125977 5.63110352 -14.04125977 5.63110352 -12.082901 2.97132874 C-7.96249125 -0.19889617 -5.06164169 -0.07000787 0 0 Z " fill="#69CAA6" transform="translate(193.041259765625,136.368896484375)"/>
<path d="M0 0 C0.87008194 -0.0049649 1.74016388 -0.00992981 2.63661194 -0.01504517 C5.5236184 -0.02968567 8.41056989 -0.03647223 11.29760742 -0.04199219 C13.30059308 -0.04774247 15.30357872 -0.05350022 17.30656433 -0.05926514 C21.51069394 -0.06978076 25.7148044 -0.07561963 29.91894531 -0.07910156 C35.30604598 -0.08458482 40.6928937 -0.10860696 46.07991505 -0.13707352 C50.21917967 -0.15569842 54.35838339 -0.16090544 58.49768639 -0.16243744 C60.48361276 -0.16546527 62.46953804 -0.17349816 64.45542336 -0.18662262 C67.23480067 -0.20367851 70.01356033 -0.20180387 72.79296875 -0.1953125 C74.02364075 -0.20913467 74.02364075 -0.20913467 75.2791748 -0.22323608 C79.86856007 -0.18966136 82.85845597 0.189154 86.59057617 3.16113281 C88.1552885 6.29055746 88.28759575 9.77195505 87.59057617 13.16113281 C85.9465175 15.50978562 84.62976672 16.95266552 81.74893188 17.53057671 C79.3785485 17.67631225 77.03764125 17.68988626 74.6628418 17.6628418 C73.7616008 17.66824478 72.8603598 17.67364777 71.93180847 17.67921448 C68.95314684 17.69172035 65.97544824 17.67519827 62.99682617 17.65722656 C60.92704213 17.65738151 58.85725779 17.65886973 56.78747559 17.66163635 C52.44973931 17.66302118 48.11233335 17.65044807 43.7746582 17.62768555 C38.21258131 17.59930086 32.65105336 17.60203721 27.08893585 17.61477566 C22.81499538 17.62172838 18.54118194 17.61394817 14.26725769 17.60151863 C12.21632881 17.59700019 10.1653863 17.59667075 8.11445618 17.60058403 C5.24878962 17.60349223 2.38388133 17.58700782 -0.48168945 17.56518555 C-1.75511955 17.57193802 -1.75511955 17.57193802 -3.05427551 17.5788269 C-6.57801827 17.53420936 -8.80605868 17.49957796 -11.92053223 15.75257874 C-14.17432525 13.34354526 -14.32011629 11.36377711 -14.58520508 8.16503906 C-14.30196047 4.93605052 -12.70058618 3.3213716 -10.40942383 1.16113281 C-7.15642759 -0.46536531 -3.57507164 0.00483524 0 0 Z " fill="#69CAA6" transform="translate(176.409423828125,101.8388671875)"/>
<path d="M0 0 C0.89002716 -0.0071553 1.78005432 -0.01431061 2.697052 -0.02168274 C5.63319541 -0.03856385 8.56781069 -0.01917062 11.50390625 0.00219727 C13.54744595 0.00136851 15.59098558 -0.0010911 17.63452148 -0.00511169 C21.91508068 -0.0079693 26.19511653 0.00672814 30.47558594 0.03417969 C35.96031389 0.06826212 41.44410604 0.06224375 46.92887878 0.04351711 C51.14798775 0.0329446 55.36687926 0.0418873 59.58596802 0.05690193 C61.6081579 0.06208233 63.6303705 0.06160367 65.65255737 0.05535698 C68.47980518 0.04990182 71.30571695 0.07028962 74.1328125 0.09765625 C74.96724884 0.09113037 75.80168518 0.08460449 76.66140747 0.07788086 C80.66386758 0.14370206 82.61998711 0.3491267 86.08764648 2.53944397 C88.06640625 4.63110352 88.06640625 4.63110352 88.66015625 6.63110352 C88.46495068 10.79548901 88.29511816 13.64155545 85.06640625 16.63110352 C81.21197777 17.91591301 77.5612839 17.79497724 73.54345703 17.80810547 C72.67322906 17.81467667 71.8030011 17.82124786 70.90640259 17.82801819 C68.02484044 17.84773928 65.14333033 17.8594099 62.26171875 17.86938477 C60.78581079 17.87549806 60.78581079 17.87549806 59.28008652 17.88173485 C54.07425903 17.90258848 48.86845787 17.91689442 43.66259766 17.92626953 C38.28329737 17.93734474 32.90440951 17.97175955 27.5252552 18.01144123 C23.39028141 18.03756797 19.25540659 18.04595776 15.12035751 18.04955101 C13.13720788 18.05442557 11.15406291 18.06606422 9.1709938 18.084589 C6.39637631 18.10890112 3.62283563 18.10803022 0.84814453 18.10107422 C-0.3801709 18.12028931 -0.3801709 18.12028931 -1.63330078 18.13989258 C-5.60065183 18.10363549 -7.48853842 17.91491117 -10.91995239 15.72673035 C-13.30934984 13.2400485 -13.85317805 12.23422127 -14.30859375 8.81860352 C-13.93359375 5.63110352 -13.93359375 5.63110352 -11.96850586 2.97132874 C-7.87579025 -0.18457033 -5.03036114 -0.07048589 0 0 Z " fill="#67CAA5" transform="translate(175.93359375,204.368896484375)"/>
<path d="M0 0 C1.33504074 -0.010952 1.33504074 -0.010952 2.697052 -0.02212524 C5.63345129 -0.03831229 8.56763432 -0.01114324 11.50390625 0.01806641 C13.54744465 0.01910395 15.59098506 0.01806724 17.63452148 0.01504517 C21.91517988 0.0152245 26.19508405 0.03605841 30.47558594 0.07226562 C35.96033879 0.11764125 41.44398989 0.11872761 46.92887878 0.10523033 C51.148008 0.09854468 55.36688639 0.11182203 59.58596802 0.1314888 C61.60815111 0.13918269 63.63036213 0.1414934 65.65255737 0.13831711 C68.47984898 0.13757462 71.30573264 0.1628438 74.1328125 0.1953125 C74.96724884 0.19035767 75.80168518 0.18540283 76.66140747 0.18029785 C80.65097701 0.25335852 82.62532138 0.46819344 86.08764648 2.63809204 C88.06640625 4.74462891 88.06640625 4.74462891 88.66015625 6.99853516 C88.62921875 7.76037109 88.59828125 8.52220703 88.56640625 9.30712891 C88.55609375 10.07154297 88.54578125 10.83595703 88.53515625 11.62353516 C87.95990351 14.2265538 87.15475766 15.12418642 85.06640625 16.74462891 C81.21197777 18.0294384 77.5612839 17.90850263 73.54345703 17.92163086 C72.67322906 17.92820206 71.8030011 17.93477325 70.90640259 17.94154358 C68.02484044 17.96126467 65.14333033 17.97293529 62.26171875 17.98291016 C60.78581079 17.98902345 60.78581079 17.98902345 59.28008652 17.99526024 C54.07425903 18.01611387 48.86845787 18.03041981 43.66259766 18.03979492 C38.28329737 18.05087013 32.90440951 18.08528494 27.5252552 18.12496662 C23.39028141 18.15109337 19.25540659 18.15948315 15.12035751 18.1630764 C13.13720788 18.16795096 11.15406291 18.17958961 9.1709938 18.1981144 C6.39637631 18.22242651 3.62283563 18.22155561 0.84814453 18.21459961 C-0.3801709 18.2338147 -0.3801709 18.2338147 -1.63330078 18.25341797 C-5.53949165 18.21771982 -7.50113702 18.00864857 -10.91213989 15.92619324 C-13.7614249 12.85122889 -14.07717334 10.90843699 -13.93359375 6.74462891 C-10.10110022 0.49294883 -7.08539926 -0.12980962 0 0 Z " fill="#66CAA4" transform="translate(192.93359375,238.25537109375)"/>
<path d="M0 0 C1.24624146 -0.0038269 2.49248291 -0.00765381 3.77648926 -0.01159668 C7.08249947 -0.01501209 10.38775458 0.00105504 13.69366455 0.0234375 C15.71708158 0.03124356 17.73980472 0.02346479 19.76318359 0.00976562 C23.65494956 -0.01494702 27.54569121 -0.0119508 31.4375 0 C32.64281372 -0.00809692 33.84812744 -0.01619385 35.08996582 -0.02453613 C43.39629164 0.06858611 43.39629164 0.06858611 47.45117188 2.34960938 C49.95792006 5.44357371 50.28815489 7.575171 50.21875 11.53125 C48.45233828 14.33314446 47.18825178 16.04649911 44.21875 17.53125 C42.39192206 17.64255469 40.56108634 17.69048203 38.73095703 17.70825195 C37.58281525 17.72108719 36.43467346 17.73392242 35.2517395 17.74714661 C34.00593109 17.75453354 32.76012268 17.76192047 31.4765625 17.76953125 C30.20150848 17.777603 28.92645447 17.78567474 27.61276245 17.79399109 C24.91091264 17.80784127 22.20918525 17.81885527 19.50732422 17.82641602 C16.04807083 17.83748384 12.58946014 17.87188832 9.13043404 17.91158772 C5.82920713 17.94402892 2.52792453 17.94853044 -0.7734375 17.95703125 C-2.01519745 17.97453934 -3.2569574 17.99204742 -4.53634644 18.01008606 C-6.26801559 18.00569771 -6.26801559 18.00569771 -8.03466797 18.0012207 C-9.05011688 18.00708694 -10.0655658 18.01295319 -11.11178589 18.01899719 C-14.49539165 17.40076666 -15.669041 16.18915241 -17.78125 13.53125 C-18.34765625 11.3125 -18.34765625 11.3125 -18.34375 9.03125 C-18.36566406 8.2784375 -18.38757813 7.525625 -18.41015625 6.75 C-16.07829331 -1.47669659 -6.80681436 -0.04572607 0 0 Z " fill="#2E3360" transform="translate(376.78125,33.46875)"/>
<path d="M0 0 C1.86580467 -0.00717545 1.86580467 -0.00717545 3.76930237 -0.01449585 C7.0701584 -0.01876555 10.36983305 0.00131638 13.67053223 0.02929688 C15.68837113 0.03904783 17.70512146 0.02934108 19.72290039 0.01220703 C23.60744463 -0.01872276 27.49038816 -0.01492782 31.375 0 C32.57515244 -0.01012115 33.77530487 -0.02024231 35.01182556 -0.03067017 C44.30324917 0.0995463 44.30324917 0.0995463 48.01977539 3.01806641 C50.25390625 5.6640625 50.25390625 5.6640625 50.87890625 8.6640625 C50.12363047 12.28938624 48.8155029 14.02712478 46.25390625 16.6640625 C43.67131158 17.95535984 41.76584883 17.81948109 38.8737793 17.85693359 C37.18643929 17.88102798 37.18643929 17.88102798 35.4650116 17.90560913 C30.31824534 17.94997726 25.17156824 17.99156352 20.0246582 18.01416016 C17.30751846 18.02749461 14.59113065 18.05533632 11.87426758 18.09619141 C7.96307395 18.15500418 4.05224573 18.17282213 0.140625 18.1875 C-1.07409988 18.21016937 -2.28882477 18.23283875 -3.5403595 18.25619507 C-12.92270563 18.23262207 -12.92270563 18.23262207 -16.01245117 15.35009766 C-18.31898002 11.77645587 -18.49187903 9.84046009 -17.74609375 5.6640625 C-13.40124293 -1.01180047 -7.38024437 -0.06213446 0 0 Z " fill="#F8C84F" transform="translate(316.74609375,238.3359375)"/>
<path d="M0 0 C1.16478378 -0.01583633 2.32956757 -0.03167267 3.52964783 -0.04798889 C4.78387039 -0.04302902 6.03809296 -0.03806915 7.33032227 -0.03295898 C9.268395 -0.04225685 9.268395 -0.04225685 11.24562073 -0.05174255 C13.97854444 -0.06214113 16.71094732 -0.05759469 19.44384766 -0.04296875 C22.93913677 -0.02579013 26.43278053 -0.04926355 29.92788601 -0.08445835 C33.27046105 -0.11175532 36.61264094 -0.10169438 39.95532227 -0.09545898 C41.83361977 -0.1153463 41.83361977 -0.1153463 43.74986267 -0.13563538 C53.40289706 -0.03204874 53.40289706 -0.03204874 56.49853516 2.88525391 C58.62545552 6.1777764 59.01004713 7.68951793 58.20922852 11.53344727 C56.03659352 14.1063045 54.22929013 16.02341646 51.20922852 17.53344727 C49.48503978 17.64941573 47.75649197 17.70303795 46.02856445 17.72631836 C44.94694031 17.74238129 43.86531616 17.75844421 42.75091553 17.7749939 C37.79708433 17.81940439 32.84338801 17.86051472 27.8894043 17.88354492 C25.27635795 17.90010168 22.66335684 17.92738755 20.05053711 17.96557617 C16.28548655 18.02033535 12.52149866 18.04221962 8.75610352 18.05688477 C7.00737946 18.09088882 7.00737946 18.09088882 5.22332764 18.12557983 C-3.8254385 18.10201144 -3.8254385 18.10201144 -7.52954102 15.13183594 C-10.57894631 11.62775253 -10.57894631 11.62775253 -10.41577148 8.47094727 C-9.37562044 1.91799568 -6.4470459 0.0390196 0 0 Z " fill="#F8C852" transform="translate(308.790771484375,136.466552734375)"/>
<path d="M0 0 C1.62035156 -0.02900391 1.62035156 -0.02900391 3.2734375 -0.05859375 C11.13176845 -0.01008553 11.13176845 -0.01008553 15.21484375 2.9765625 C17.4200227 6.2481409 17.72566031 7.75481169 17 11.625 C15.20006226 14.32490662 13.916227 16.1668865 11 17.625 C7.40235402 17.91882599 3.79574606 17.90296031 0.1875 17.9375 C-0.81087891 17.96650391 -1.80925781 17.99550781 -2.83789062 18.02539062 C-10.23107012 18.08942216 -10.23107012 18.08942216 -14.13671875 15.73046875 C-16.35151502 13.2277954 -16.93227262 12.13295536 -17.375 8.8125 C-17 5.625 -17 5.625 -15.2265625 2.96484375 C-10.35494093 -0.56796657 -5.86725513 -0.10502247 0 0 Z " fill="#EA6677" transform="translate(401,136.375)"/>
<path d="M0 0 C1.04800781 -0.02223633 1.04800781 -0.02223633 2.1171875 -0.04492188 C6.05108043 0.01816886 7.86389381 0.5793682 10.96484375 3.04296875 C13 5.6875 13 5.6875 13.5625 8.6875 C12.87642343 12.34657504 11.57265686 14.03917676 9 16.6875 C6.07752427 18.14873786 3.44146161 17.9352615 0.1875 18 C-1.64748047 18.05607422 -1.64748047 18.05607422 -3.51953125 18.11328125 C-7.59773794 17.61437605 -9.16883897 16.61251167 -12 13.6875 C-13.125 10.3125 -13.125 10.3125 -13 6.6875 C-9.44611682 1.05245177 -6.72298741 -0.26668677 0 0 Z " fill="#B2CCDD" transform="translate(98,204.3125)"/>
<path d="M0 0 C0.70318359 -0.02384766 1.40636719 -0.04769531 2.13085938 -0.07226562 C6.09921852 -0.0611081 7.89292228 0.42839973 11.03125 2.91015625 C13.0625 5.5625 13.0625 5.5625 13.625 8.5625 C12.93892343 12.22157504 11.63515686 13.91417676 9.0625 16.5625 C4.4058043 18.89084785 -1.88335353 18.10652271 -6.9375 17.5625 C-9.54344207 16.15264462 -10.27470034 15.08749208 -11.9375 12.5625 C-12.2675 12.2325 -12.5975 11.9025 -12.9375 11.5625 C-12.73249309 7.94071132 -12.50534369 5.36432953 -10.3828125 2.3671875 C-7.0250021 -0.11094094 -4.01535702 -0.06222522 0 0 Z " fill="#B2CCDE" transform="translate(97.9375,170.4375)"/>
<path d="M0 0 C1.13050781 -0.03738281 2.26101562 -0.07476562 3.42578125 -0.11328125 C7.33054057 0.39644182 8.90898129 1.58459183 11.6875 4.3125 C13.13180855 7.20111709 13.06438506 9.10897701 12.6875 12.3125 C9.90580823 15.98196574 8.43757772 17.18989846 3.83984375 17.94140625 C2.43472702 17.94535691 1.02931493 17.92262571 -0.375 17.875 C-1.08205078 17.88595703 -1.78910156 17.89691406 -2.51757812 17.90820312 C-5.95809962 17.85974508 -7.96275558 17.57452717 -10.7421875 15.4921875 C-13.00137695 12.35629766 -13.38003658 10.16208492 -13.3125 6.3125 C-9.14632719 1.13293381 -6.46238144 0.13905464 0 0 Z " fill="#B2CCDE" transform="translate(98.3125,101.6875)"/>
<path d="M0 0 C1.19625 -0.0103125 2.3925 -0.020625 3.625 -0.03125 C7.57717905 0.59085226 9.23514392 1.64858304 12 4.5 C12.93605213 7.99459462 13.3742539 10.34605048 12.25 13.8125 C11 15.5 11 15.5 8 17.5 C5.3192329 17.80107967 2.80843739 17.96131982 0.125 18 C-0.58269531 18.04125 -1.29039063 18.0825 -2.01953125 18.125 C-4.91579693 18.16814735 -7.27075926 18.06063271 -9.61767578 16.25634766 C-12.18251461 13.35991893 -12.99043069 11.77751009 -13.125 7.875 C-10.90638012 1.21914035 -6.63712573 -0.0572166 0 0 Z " fill="#FAFAFB" transform="translate(98,33.5)"/>
<path d="M0 0 C3.17633717 1.27493118 3.89109311 2.14677303 6 5 C6.924808 8.95145235 6.13741098 10.70319229 4.4375 14.375 C2.21474457 16.82325236 0.84139839 17.02339152 -2.49609375 17.515625 C-12.47001146 17.96164825 -12.47001146 17.96164825 -16.90234375 15.17578125 C-19.81163779 12.15813361 -20.07279196 10.14914151 -20 6 C-15.15842923 -1.67973294 -8.40387913 -0.83848227 0 0 Z " fill="#B2CBDD" transform="translate(105,239)"/>
<path d="M0 0 C0.70318359 -0.02384766 1.40636719 -0.04769531 2.13085938 -0.07226562 C6.09835193 -0.06111054 7.89126441 0.42691029 11.02734375 2.91015625 C13.0625 5.5625 13.0625 5.5625 13.6875 8.5625 C12.86180566 12.52583283 11.12808569 14.00784526 8.0625 16.5625 C5.38594199 17.90077901 3.23815948 17.76828556 0.25 17.8125 C-0.78769531 17.83828125 -1.82539062 17.8640625 -2.89453125 17.890625 C-6.33542281 17.51959176 -8.15829038 16.58149953 -10.9375 14.5625 C-12.86613839 12.02020394 -12.94652291 10.77904982 -12.8125 7.5625 C-10.80821596 0.690669 -6.5876608 -0.10208772 0 0 Z " fill="#B2CCDE" transform="translate(97.9375,136.4375)"/>
<path d="M0 0 C3.3701459 1.226026 3.92623147 1.8893472 6 5 C6.55367781 9.27122881 6.59681817 11.22085219 3.94140625 14.6875 C0.23411609 17.60212918 -1.82872495 17.67171275 -6.5 17.625 C-8.43359375 17.64433594 -8.43359375 17.64433594 -10.40625 17.6640625 C-14.81216976 16.84992515 -16.29068379 15.50677532 -19 12 C-19.75123045 7.79310949 -19.44098839 5.79717131 -17.375 2.0625 C-11.97916089 -1.23495723 -6.16831674 -0.69843872 0 0 Z " fill="#FBFBFC" transform="translate(190,34)"/>
<path d="M0 0 C2.25748269 1.16755639 4.20043239 2.20043239 6 4 C6.2734375 5.92578125 6.2734375 5.92578125 6.375 8.3125 C6.44847656 9.48232422 6.44847656 9.48232422 6.5234375 10.67578125 C6 13 6 13 3.94921875 15.26171875 C0.2300977 17.45378347 -2.26553789 17.53413674 -6.5625 17.5 C-7.86316406 17.5103125 -9.16382813 17.520625 -10.50390625 17.53125 C-14.4659814 16.92919165 -15.60890629 16.13356045 -18 13 C-19.462958 10.074084 -19.44523109 8.24382653 -19 5 C-14.16446909 -1.3552692 -7.52206694 -1.12972219 0 0 Z " fill="#FBFBFC" transform="translate(147,34)"/>
</svg>
